<svg id="Ebene_1" data-name="Ebene 1" xmlns="http://www.w3.org/2000/svg" viewBox="0 0 900 900"><path d="M225.2,756.88c-36.63-16-73.22-32.17-109.92-48-12.13-5.24-26.18-13.09-34.66-22.91-7.93-9.18-12.06-22.68-8.8-34.84,6.41-23.93,32.58-18.6,48.41-31.39,7.76-6.27,11.17-17.23,9-26.88C126.56,581,113,574,103.58,567.84c-23.74-15.63-55.53-27-66.31-55.68C32.05,498.23,31.1,479.56,40,467c7.39-10.43,18.54-16.31,27.44-25.17,10.17-10.13,14.81-23.62,18.14-37.29,1.45-6,2.72-12.17,1.39-18.14C83.79,372.07,69.49,373,62,363c-7.87-10.5-5.38-22.05,5-30a50.06,50.06,0,0,1,16.34-8.48c176.33-52,352.5-104.65,530.34-151.71,22.62-6,45.15-12.69,68.9-13.71,25.86-1.11,51.37.39,76.24,8.79,23.29,7.86,43.27,20.74,58.67,39.68,22.2,27.29,39.5,57.4,49.6,91.13,3.53,11.77,5.66,23.79,3,36.1-2.07,9.62-7.57,16.32-16.84,19.88-2.56,1-5.13,2-7.77,2.7-18.25,5.11-32.49-.44-42.48-16.64-3.36-5.46-6.09-11.32-9.75-16.56-12.21-17.51-30.67-16.79-40.25,2.22-4.67,9.25-7.68,19.63-9.68,29.86-5.4,27.59-9.91,55.37-14.7,83.09-3.64,21.08,1.92,38.89,17.18,55,23,24.24,44.6,49.77,66.87,74.69,7.24,8.11,12.81,17,14.58,27.81,3.35,20.56-7.8,36.75-28.33,41-11.94,2.47-23.84,1.22-35.55-1.41-58.34-13.12-116.75-26-174.92-39.81-71.43-17-142.67-34.83-213.94-52.51-12.07-3-24.08-5.27-36.51-4.13-22.42,2.06-40,12.35-50.56,31.9a138.58,138.58,0,0,0-12.72,34.52c-6.88,30.12,8.37,53.67,31,72.38,16.7,13.79,35.35,25.87,53.67,37.2,13.79,8.53,26.05,20.11,32.7,35.17,4.18,9.46,5.72,20.31,3,30.29a32.62,32.62,0,0,1-25.89,23.85c-15.89,3-31.13-.76-45.95-6.07-10.37-3.72-20.39-8.46-30.52-12.88C264.24,773.88,253.72,769.37,225.2,756.88Z" fill="none" stroke="#fff" stroke-miterlimit="10" stroke-width="10"/></svg>