<svg xmlns="http://www.w3.org/2000/svg" viewBox="0 0 900 900"><switch><g><path d="M177.9 694.03c-12.07-3.21-22.99-13.62-32.49-31.01l-121.8-222.9a47.145 47.145 0 01-5.58-21c-.41-11.38 2.92-28.71 21.16-46.59 32.67-32.01 160.01-157.74 161.29-159 .09-.1.2-.19.3-.27 6.35-5.21 21.11-12.05 31.58-.48 13.81 15.21 8.35 39.18 8.11 40.19-1.23 5.18-4.09 17.3 14.26 28.06 20.16 11.86 96.29 46.49 123.76 55.6 28.76 9.5 92.16 23.13 126.08 22.73 32.96-.38 71.38-1.54 110.2-10.43 37.6-8.6 225.19-72.83 227.09-73.51.22-.08 7.38-2.69 15.05-4.54 12.92-3.17 19.54-2.5 22.12 2.22 3.38 6.17-3.21 13.4-8.45 18.3a108.19 108.19 0 01-13.83 10.86c-1.77 1.08-187.79 109.55-202.8 111.56-14.61 1.98-36.91.27-43.55-.48-7.85-.89-100.32-11.58-101.25-11.69-.16-.02-.32-.04-.47-.08-2.15-.46-8.63-1.04-12.48 1.93-2.33 1.76-3.51 4.64-3.71 8.77-.65 13.77.64 39.33 16.57 55.52 6.26 6.36 9.07 13.08 8.39 19.97-1.36 13.58-16.29 23.71-24.31 29.14-12.59 8.52-158.09 101.84-164.31 105.8l-.2.12c-1.15.62-28.54 15.89-51.81 3.05-19.97-11.03-32.5-26.1-42.57-38.2-1.05-1.26-2.07-2.49-3.06-3.67-9.9-11.73-48.31-56.21-49.9-58.07-.53-.56-9.03-9.47-17.85-9.39-3.73.03-7.01 1.71-10.04 5.13-13.06 14.73-1.34 47.04 5.49 57.39 6.83 10.35 17.77 13.2 28.26 15.87 9.25 2.36 18 4.57 22.84 11.99 1.29 1.97 6.16 9.07 10.87 15.9 5.18 7.55 10.05 14.67 11.04 16.19l.17.26c8.95 13.83 3.44 24.15-2.77 30.43-.49.49-1.03 1.03-1.59 1.61-8.33 8.5-25.64 26.2-46.01 23.38-1.27-.13-2.55-.36-3.8-.66" fill="none" stroke="#fff" stroke-width="28.346" stroke-miterlimit="10"/></g></switch></svg>