<svg id="Ebene_1" data-name="Ebene 1" xmlns="http://www.w3.org/2000/svg" viewBox="0 0 900 900"><defs><style>.cls-1{fill:none;stroke:#fff;stroke-miterlimit:10;stroke-width:10px;}</style></defs><path class="cls-1" d="M214.92,752.44a31,31,0,0,1-31.16,3A32.18,32.18,0,0,1,167,737.14a30.34,30.34,0,0,1,1-23.73c7-14.49,50.75-106.23,52.73-110.91l.17-.52c1.3-4,3.49-10.61-.25-16.58-4.7-7.5-9.1-12-24.4-22.31l-3.38-2.29c-16.59-11.18-41.64-28.08-54.84-38.11-8.37-6.37-17.22-19.76-18.14-35.32-.56-9.79,1.83-24.5,16.54-38.71,3.67-3.55,12.65-10.69,18.6-15.42l4.43-3.54c15.95-13,105-93.73,105.86-94.51,1.37-1.25,33.51-30.17,45.07-37.43,12-7.52,24.25-12.84,45.34-14.17,77.81-5.08,261.19-16.71,263-16.82h.29c6.64,0,18.65-1.25,22.66-4.58,1.92-1.59,3.54-5.36,5.25-9.35,3-7.1,6.85-16,15.65-21.74,10.25-6.76,17.1-7.56,35.42-8.89,18.77-1.37,46.56-1.65,64.94-1.86,7.86-.1,14-.15,16.87-.27a40,40,0,0,1,25.19,72.45L460.7,539.18c-45.36,32.5-78.28,47.33-79.66,48-2.68,1.18-26.33,11.52-35.59,12.86-6,.87-12.64-2.12-16.44-7.42-3.92-5.47-4.69-12.07-2-17.23,7.77-15,11.94-24.26,14.69-30.36,5.69-12.62,6.18-13.24,17.63-21.41l2.09-1.49a38.11,38.11,0,0,0-18.59-68.85l-4.47-.43c-17.77-1.7-71.85-6.91-90.61,6.53a20.51,20.51,0,0,0-5,28.58l.25.35c1.61,2.25,4.31,4.84,12.16,7.15l29,8.74a20.76,20.76,0,0,1,12.7,9.15c3.79,6.11,4.34,14.08,1.64,23.68-3.56,12.66-10.23,35.64-16.72,57.8-8,27.65-17.17,59-17.82,62.16-1.77,8.75-38.05,82.13-38.42,82.87A33.85,33.85,0,0,1,214.92,752.44Z"/></svg>