<svg data-name="Ebene 1" xmlns="http://www.w3.org/2000/svg" viewBox="0 0 900 900"><path d="M471.15 690.86c-23.32 6.41-46.63 12.91-70 19.27-8.21 2.06-12.66-.15-19.13-7.6-22.17-37.15-47.08-71.12-72-105.66-33.38-46.32-60-96.05-82.74-148.18C217 425 205 402.1 193.14 379.12c-12.09-23.49-30-42.64-48.33-61.28-23.13-23.55-46.69-46.67-70.12-69.92-4.69-4.65-9.27-9.41-6.73-16.68 2.44-7 8.78-9 15.28-9.91 56.64-8.38 113.1-7.61 169.37 3.39 24.44 4.78 49 9.15 73.44 13.73 1.36.26 15.53 2.86 17.3 3.16 22.23 3.65 44.36 8.07 66.7 10.84 21.64 2.69 43.47 4.16 65.26 5.34 22.05 1.18 44.15 1.42 66.23 1.94s33.08 17.51 22.44 36.92c-20.37 37.12-51.87 58.81-94 65.25-22.39 3.42-44-1.79-65.71-5.06-21.35-3.2-42.59-7.18-63.93-10.44-18.09-2.77-33.41 2.39-44.6 17.45-11 14.8-12.26 31.24-4 47 14.47 27.48 30 54.44 45.92 81.11 16.56 27.74 52.76 24.28 68.61 6.17 4.37-5 8.68-10.06 12.79-15.27 21.23-26.9 49.06-41.94 83.12-43.55 41.5-2 83.07-2.45 124.62-3.5 46.29-1.17 92.59-2.48 138.89-3.18a93.87 93.87 0 0126.61 3.77c13.07 3.71 21.27 13.63 25.2 26.15 9.37 29.85 18.16 59.89 26.8 90 2.4 8.38 3.2 15.32-3.24 20.86-.44.37-4.47 3.6-6.49 5-6.37 4.36-16.89 11.73-62.16 28.54-32.4 9.21-64.63 19.2-97.14 28.07-2.2.6-65.35 17.84-85.67 23.37-.04-.39-88.75 24.3-118.45 32.47zm204.67-67.93c22.26-5.83 44.27-12.48 66.51-18.4 26.33-7 57.31-16.63 81.72-31.84 10.62-6.72 14.16-9.2 7.79-28.3-6.72-27.25-14.51-54.13-24-83.12-3.63-10.43-12.39-16.76-23.48-18.68a103.85 103.85 0 00-19.1-1.67c-31.58.49-63.16 1.31-94.74 2-.65 0-32.85.82-43.27 1.11-40.84 1.13-81.69 1.71-122.51 3.33-28.18 1.12-52.67 11.64-71.93 32.78-6.39 7-12.22 14.53-18.32 21.8-20.43 24.29-64.44 27-84.19-5.78-7.46-12.38-14.65-24.93-21.79-37.5-8.09-14.23-16.61-28.27-23.8-43-9.34-19-9-38.19 3.65-55.93 13.21-18.53 31.8-24.85 53.77-21.5 27.45 4.18 54.88 8.55 82.19 13.49 23.12 4.19 45.75 4.07 68.12-3.82 29-10.21 50.24-29.26 64.57-56 6.4-11.93.66-22.68-12.83-23.84-2.65-.23-5.32-.11-8-.21-32.51-1.18-65.24-.45-97.48-4.05-42.61-4.75-84.89-12.56-127.2-19.69-44.43-7.48-88.32-18.18-133.66-19.85-31.23-1.15-62.18 1.09-93 5.32a14.14 14.14 0 00-5.65 2.65 4.23 4.23 0 00-1.33 5.59 18.89 18.89 0 002.8 4c13 13.18 26.41 26 39.3 39.28 19.34 19.94 39.27 39.39 57.31 60.45 26.72 31.19 42.52 68.86 58.86 106 18.46 42 38 83.44 64.71 120.85 28 39.21 58 79.31 85.95 119.29 9.53 12.79 6 15.15 26.53 7.43 79.18-21.65 155.17-40.49 234.57-64.39 2.11-.6 23.11-6.55 27.93-7.8z" fill="#fff"/></svg>